<?xml version="1.0" encoding="utf-8"?>
<!-- Generator: Adobe Illustrator 16.0.4, SVG Export Plug-In . SVG Version: 6.00 Build 0)  -->
<!DOCTYPE svg PUBLIC "-//W3C//DTD SVG 1.1//EN" "http://www.w3.org/Graphics/SVG/1.1/DTD/svg11.dtd">
<svg version="1.1" xmlns="http://www.w3.org/2000/svg" xmlns:xlink="http://www.w3.org/1999/xlink" x="0px" y="0px" width="220px"
	 height="80px" viewBox="0 0 220 80" enable-background="new 0 0 220 80" xml:space="preserve">
<g id="Layer_2" display="none">
</g>
<g id="Layer_1">
	<g>
		<g>
			<g>
				<path fill="#6CCDF0" d="M12.759,29.791v0.995h-0.957v-0.995H12.759z M12.296,22.059h0.959v0.46l-0.959,0.996V22.059z
					 M12.296,27.88h0.959v0.955h-0.959V27.88z M12.296,41.472h0.959l0.5,3.375h-0.996L12.296,41.472z M14.216,35.614h0.992v3.409
					h-0.992V35.614z M15.208,43.889h0.957l1.953,7.771C17.046,51.66,16.077,49.067,15.208,43.889z M38.491,6.509l3.867-0.956v6.317
					c-11.977,6.204-17.957,14.451-17.957,24.741v0.955h0.994v1.457h-0.994v0.495c0,5.901,3.074,12.038,9.23,18.42
					c5.539,3.887,10.871,5.825,16.004,5.825h1.957c8.553,0,15.18-3.718,19.873-11.146c3.578-4.188,5.363-8.885,5.363-14.095v-5.321
					h-0.5v0.956H75.37l-0.494-2.911h0.957v1.457h0.496v-1.457l-0.496-1.915l-0.463,0.459h-0.494c-1.406-3.675-3.18-6.42-5.324-8.232
					v1.454h-0.496c-4.852-4.212-7.76-6.317-8.734-6.317v-0.957h0.498l4.828,1.953v-0.497c-1.865-2.095-4.779-4.198-8.734-6.32V9.919
					l0.498,0.498h1.455V6.509l0.957-0.956c8.223,2.499,14.695,7.518,19.418,15.048c1.812,2.809,3.434,7.33,4.861,13.558
					l-0.496,1.953l0.496,0.5v0.457c0,14.246-7.439,24.932-22.328,32.056c-1.094,1.941-4.326,2.908-9.686,2.908h-3.41
					c-1.201-1.303-3.793-2.119-7.773-2.449c-15.52-6.971-23.281-16.994-23.281-30.064v-3.904c0-9.189,4.531-17.589,13.592-25.197
					c0-1.687,2.426-3.31,7.275-4.864V6.509z M28.304,10.874v0.498L18.581,24.47h-0.463c0-4.135,3.229-8.666,9.691-13.596H28.304z
					 M23.942,6.509v0.496l-2.449,2.417h-0.465V8.963L23.942,6.509z M50.634,15.738h1.455c6.176,0,11.996,3.073,17.463,9.229
					c1.455,0,2.58,1.609,3.373,4.823h-0.961l0.496,2.453l-0.496,0.46h-3.406c-4.572-7.765-9.258-11.642-14.055-11.642v-0.462
					l-0.502,0.462h-0.457l-4.865-0.462c-5.564,0-10.262,3.719-14.092,11.147c-0.637,1.196-1.125,3.624-1.459,7.275l1.002,0.957
					l-0.498,1.953c0.615,3.855,3.684,7.736,9.229,11.64c0,0.742,1.941,1.398,5.818,1.957h1.955v-0.96h1.455v0.96h1.455l0.959-0.96
					l6.777-3.405l-0.959-1.455c2.582-2.404,3.867-4.024,3.867-4.863h1v0.494l-1.461,4.369h0.461l3.906-5.821l1.916-0.501
					c1.633,0.408,2.449,0.895,2.449,1.459c-4.338,10.36-10.975,15.548-19.912,15.548h-2.912c-9.062,0-15.686-5.188-19.873-15.548
					c-1.633-0.973-2.453-2.594-2.453-4.866v-2.912c1.938-5.487,4.049-10.005,6.322-13.554C38.862,18.328,44.53,15.738,50.634,15.738
					z M32.675,54.57h0.957c7.145,4.52,11.678,6.778,13.59,6.778v0.497l-0.494,0.462h-0.459c-4.957,0-9.488-2.429-13.594-7.275V54.57
					z M40.403,25.429h0.996v0.496c-2.625,3.42-4.246,6.166-4.861,8.233h-1.455C35.083,30.915,36.86,28.006,40.403,25.429z
					 M52.089,22.519c1.939,0.66,2.91,1.314,2.91,1.951l-0.496,0.498c4.822,0,8.221,4.036,10.186,12.101v1.455
					c0,4.827-1.943,8.554-5.822,11.187l0.5,0.494v0.461c0,0.538-0.971,1.187-2.916,1.953l-0.992-0.958l-0.459,0.459h-0.496
					l-0.502-0.459v-1.95c5.186-3.448,7.773-7.331,7.773-11.644v-0.5c-1.736-6.791-5.129-10.185-10.182-10.185v0.498l-0.5-0.498
					h-0.959c-6.785,1.838-10.186,4.747-10.186,8.729v0.5h0.455v-0.997h0.996l-0.996,2.452c0.668,2.576,1.316,3.867,1.955,3.867
					h0.502v-0.462l-0.502-0.498v-0.496l0.502-0.497h0.957c1.838,2.935,3.779,4.402,5.818,4.402h1.957
					c2.555,0,4.324-1.786,5.32-5.359l-0.463-2.412h0.463c-0.838-2.097-1.648-3.229-2.41-3.409v0.956h-0.502
					c-1.941-0.637-2.908-1.442-2.908-2.41h-0.459c-2.531,0-4.805,1.454-6.816,4.363h-0.5l-0.959-0.954V33.7
					c2.91-2.606,5.504-3.909,7.775-3.909h0.959l2.908,0.498l1.955-0.498c0.893,0,2.027,1.139,3.41,3.411V33.7l-1.457,0.458
					l1.457,5.822l0.457,0.497v0.994l-1.457,1.457l-0.457-0.497h-0.498c0,1.812-2.256,3.268-6.777,4.366
					c-1.484,0-3.92-1.135-7.316-3.41l-1.455-0.459l-0.463,0.459v0.995l0.959,0.958l0.959-0.958h0.5l2.451,2.415v0.497h-1.955v0.461
					c1.301,0,2.271,0.651,2.908,1.954v1.455l-0.953,0.954h-0.5c-6.486-3.317-9.725-8.819-9.725-16.505
					c0.457-0.024,1.428-1.965,2.904-5.823c3.096-3.087,6.498-5.024,10.23-5.818C49.179,23.332,50.142,22.849,52.089,22.519z
					 M38.491,48.747h0.457v0.963h-0.457V48.747z M39.45,37.068v0.998h0.498v-0.998H39.45z M45.769,13.326h1.453v0.461l-0.953,0.995
					l-0.5-0.498l-3.41,0.957v-0.957L45.769,13.326z M45.269,52.618l3.41,0.497v0.959l-3.41-0.501V52.618z M47.722,10.417h1.457
					v0.955h-1.457V10.417z M49.179,62.308h1.914V63.3h-1.914V62.308z M50.634,48.252h1.455v0.955h-1.455V48.252z M51.093,12.331
					h1.951v0.995h-1.951V12.331z M53.044,40.974l0.957,0.96l-1.453,1.454l-0.955-0.956L53.044,40.974z M55.458,73.49v0.957h-2.414
					V73.95L55.458,73.49z M54.503,55.032v0.498h0.955v-0.498H54.503z M66.144,33.7h0.955l0.498,2.411v0.5h-0.955l-0.498-2.453V33.7z
					 M67.099,39.023h0.996v1.454h-0.996V39.023z M69.056,36.611h0.955v0.955h-0.955V36.611z M74.38,37.566h0.99v3.407l-0.494,2.414
					h-0.963l0.467-2.414V37.566z"/>
			</g>
		</g>
	</g>
	<g>
		<path fill="#FFFFFF" d="M95.25,19.609h15.407v6.162c2.838-3.648,6.892-7.136,13.136-7.136c9.325,0,14.919,6.163,14.919,16.138
			v28.704h-15.405V39.719c0-4.783-2.514-7.379-6.163-7.379c-3.73,0-6.486,2.596-6.486,7.379v23.759H95.25V19.609z"/>
		<path fill="#FFFFFF" d="M145.281,49.854V32.016h-5.19V19.609h5.19V8.5h15.406v11.109h10.218v12.406h-10.218v14.839
			c0,3.082,1.379,4.38,4.217,4.38c2.027,0,3.974-0.568,5.838-1.461v12.083c-2.757,1.54-6.405,2.513-10.702,2.513
			C150.796,64.369,145.281,60.315,145.281,49.854z"/>
		<path fill="#FFFFFF" d="M170.509,41.746v-0.162c0-12.487,10.217-22.948,24.326-22.948c14.028,0,24.164,10.3,24.164,22.786v0.162
			c0,12.487-10.218,22.947-24.326,22.947C180.645,64.531,170.509,54.234,170.509,41.746z M203.997,41.746v-0.162
			c0-5.352-3.892-9.893-9.324-9.893c-5.595,0-9.163,4.459-9.163,9.73v0.162c0,5.352,3.893,9.894,9.325,9.894
			C200.43,51.478,203.997,47.017,203.997,41.746z"/>
	</g>
</g>
</svg>
